<svg xmlns="http://www.w3.org/2000/svg" viewBox="0 0 40 40" width="40" height="40">
  <path xmlns="http://www.w3.org/2000/svg" class="st25" d="M15.2,17.4c0,0,2.1-0.4,2-2.6c-0.1-2.1-1.5-5.1-2.5-5.8c-1-0.7-3.5,0.5-4.4,1.3c-0.9,0.8-1.4,5.5,0.6,11    c1.9,5.5,6.9,9.9,9.1,11.2c2.2,1.3,4,1.3,4.6,0.8c0.6-0.4,2.2-1.6,2.4-2.6c0.2-1-0.2-2.8-2.3-4.5c-2-1.7-2.9-1.7-3.3-1.3    c-0.4,0.3-1.3,0.9-1.3,0.9s-2.7-0.7-4.1-3.2C14.7,20.1,15.2,17.4,15.2,17.4z M23.3,9.6c4.6,1.5,7.9,5.8,7.9,10.9    c0,1.2-0.2,2.3-0.5,3.4 M22.1,13.2c3.1,1.1,5.3,4,5.3,7.4c0,0.7-0.1,1.4-0.3,2.1 M20.9,17c1.5,0.4,2.6,1.8,2.6,3.5    c0,0.4-0.1,0.9-0.2,1.3" fill="#4eb7a8" />
</svg>