<svg xmlns="http://www.w3.org/2000/svg" viewBox="0 0 25 20" width="25" height="20">
  <path fillRule="evenodd" d="M 22.54 20C 22.54 20 1.61 20 1.61 20 0.72 20 0 19.28 0 18.39 0 18.39 0 5.51 0 5.51 0 4.62 0.72 3.9 1.61 3.9 1.61 3.9 5.63 3.9 5.63 3.9 5.63 3.9 5.63 2.29 5.63 2.29 5.63 1.4 6.35 0.68 7.24 0.68 7.24 0.68 16.9 0.68 16.9 0.68 17.79 0.68 18.51 1.4 18.51 2.29 18.51 2.29 18.51 3.9 18.51 3.9 18.51 3.9 22.54 3.9 22.54 3.9 23.43 3.9 24.15 4.62 24.15 5.51 24.15 5.51 24.15 18.39 24.15 18.39 24.15 19.28 23.43 20 22.54 20ZM 12.07 6.32C 9.07 6.32 6.64 8.75 6.64 11.75 6.64 14.75 9.07 17.18 12.07 17.18 15.07 17.18 17.51 14.75 17.51 11.75 17.51 8.75 15.07 6.32 12.07 6.32ZM 12.07 15.17C 10.18 15.17 8.65 13.64 8.65 11.75 8.65 9.86 10.18 8.33 12.07 8.33 13.96 8.33 15.49 9.86 15.49 11.75 15.49 13.64 13.96 15.17 12.07 15.17Z" fill="rgb(141,141,141)" />
</svg>