<?xml version="1.0" encoding="utf-8"?>
<svg xmlns="http://www.w3.org/2000/svg"
	xmlns:xlink="http://www.w3.org/1999/xlink"
	width="20px" height="22px" viewBox="0 0 20 22">
<path fillRule="evenodd" d="M 15.03 17.03C 15.03 17.03 14.89 17.03 14.89 17.03 14.36 19.15 14.5 22 14.5 22 12.02 21.07 9.95 17.83 9.47 17.03 9.47 17.03 5.1 17.03 5.1 17.03 2.36 17.03 0.14 14.81 0.14 12.07 0.14 12.07 0.14 5.86 0.14 5.86 0.14 3.12 2.36 0.9 5.1 0.9 5.1 0.9 15.03 0.9 15.03 0.9 17.78 0.9 20 3.12 20 5.86 20 5.86 20 12.07 20 12.07 20 14.81 17.78 17.03 15.03 17.03Z" fill="rgb(141,141,141)"/></svg>