<svg xmlns="http://www.w3.org/2000/svg" viewBox="0 0 49 49" width="49" height="49">
	<defs>
		<clipPath clipPathUnits="userSpaceOnUse" id="cp1">
			<path d="M0 0L49 0L49 49L0 49Z" />
		</clipPath>
	</defs>
	<g clip-path="url(#cp1)">
		<path d="M49.44,24.28c0,1.68 -0.17,3.35 -0.5,4.98c-0.32,1.59 -0.81,3.15 -1.44,4.64c-0.62,1.47 -1.39,2.88 -2.28,4.2c-0.88,1.31 -1.9,2.54 -3.02,3.66c-1.12,1.12 -2.35,2.13 -3.66,3.02c-1.32,0.89 -2.73,1.66 -4.2,2.28c-1.49,0.63 -3.06,1.12 -4.64,1.44c-1.63,0.34 -3.3,0.5 -4.98,0.5c-1.68,0 -3.35,-0.17 -4.98,-0.5c-1.59,-0.33 -3.15,-0.81 -4.65,-1.44c-1.47,-0.62 -2.88,-1.39 -4.2,-2.28c-1.31,-0.88 -2.54,-1.9 -3.66,-3.02c-1.12,-1.12 -2.13,-2.35 -3.02,-3.66c-0.89,-1.32 -1.66,-2.74 -2.28,-4.2c-0.63,-1.49 -1.12,-3.06 -1.44,-4.64c-0.33,-1.63 -0.5,-3.3 -0.5,-4.98c0,-1.67 0.17,-3.35 0.5,-4.97c0.33,-1.59 0.81,-3.15 1.44,-4.65c0.62,-1.47 1.39,-2.88 2.28,-4.2c0.88,-1.31 1.9,-2.54 3.02,-3.66c1.12,-1.12 2.35,-2.14 3.66,-3.02c1.32,-0.89 2.74,-1.66 4.2,-2.28c1.49,-0.63 3.06,-1.12 4.65,-1.44c1.63,-0.33 3.3,-0.5 4.98,-0.5c1.67,0 3.35,0.17 4.98,0.5c1.59,0.32 3.15,0.81 4.64,1.44c1.47,0.62 2.88,1.39 4.2,2.28c1.31,0.88 2.54,1.9 3.66,3.02c1.12,1.12 2.13,2.35 3.02,3.66c0.89,1.32 1.66,2.73 2.28,4.2c0.63,1.49 1.12,3.06 1.44,4.65c0.33,1.63 0.5,3.3 0.5,4.97zM32.96,43.72c-0.31,-1.85 -1.54,-8.31 -4.51,-16.03c-0.05,0.01 -0.09,0.03 -0.14,0.05c-12.52,4.36 -16.57,13.19 -16.57,13.19c0,0 -0.19,-0.14 -0.47,-0.37c3.65,3.02 8.34,4.84 13.45,4.84c2.92,0 5.71,-0.6 8.24,-1.67zM9.02,38.39c0,0 -0.01,-0.01 -0.01,-0.01c0,0 5.78,-10.25 17.17,-13.93c0.28,-0.09 0.55,-0.17 0.83,-0.25c-0.53,-1.2 -1.11,-2.4 -1.71,-3.59c-10.87,3.25 -21.3,3.02 -21.67,3.01c-0.01,0.22 -0.02,0.44 -0.02,0.67c0,5.42 2.05,10.37 5.41,14.11zM4.06,19.93c0.56,0.01 9.35,0.11 19.49,-2.58c-3.65,-6.5 -7.56,-11.79 -7.84,-12.17c-5.89,2.78 -10.28,8.2 -11.65,14.74zM19.6,3.8c0.04,-0.01 0.06,-0.01 0.06,-0.01c0,0 0,0 0,0c-0.02,0.01 -0.05,0.01 -0.07,0.02zM24.72,3.17c-1.72,0 -3.38,0.21 -4.98,0.6c0.32,0.42 4.28,5.69 7.89,12.32c7.97,-2.99 10.98,-7.56 11.03,-7.65c-3.72,-3.28 -8.6,-5.27 -13.94,-5.27zM41.02,10.87c-0.04,0.06 -3.42,4.95 -11.76,8.36c0.49,1 0.96,2.03 1.4,3.06c0.16,0.37 0.31,0.73 0.46,1.09c7.25,-0.91 14.4,0.63 14.7,0.69c-0.05,-5.01 -1.84,-9.6 -4.8,-13.2zM45.56,27.63c-0.44,-0.14 -6.34,-2.01 -13.16,-0.92c2.77,7.61 3.89,13.8 4.11,15.08c4.74,-3.2 8.11,-8.27 9.05,-14.16z" fill="#2c2e35" />
	</g>
</svg>