<?xml version="1.0" encoding="utf-8"?>
<svg xmlns="http://www.w3.org/2000/svg"
	xmlns:xlink="http://www.w3.org/1999/xlink"
	width="27px" height="26px" viewBox="0 0 27 26">
<path fillRule="evenodd" d="M 25.45 14.05C 25.45 14.05 22.65 14.05 22.65 14.05 22.12 18.25 18.77 21.58 14.55 22.06 14.55 22.06 14.55 24.95 14.55 24.95 14.55 25.53 14.08 26 13.5 26 12.92 26 12.45 25.53 12.45 24.95 12.45 24.95 12.45 22.06 12.45 22.06 8.23 21.58 4.88 18.25 4.35 14.05 4.35 14.05 1.55 14.05 1.55 14.05 0.97 14.05 0.5 13.58 0.5 13 0.5 12.42 0.97 11.95 1.55 11.95 1.55 11.95 4.32 11.95 4.32 11.95 4.76 7.65 8.16 4.22 12.45 3.73 12.45 3.73 12.45 1.05 12.45 1.05 12.45 0.47 12.92-0 13.5-0 14.08-0 14.55 0.47 14.55 1.05 14.55 1.05 14.55 3.73 14.55 3.73 18.84 4.22 22.24 7.65 22.68 11.95 22.68 11.95 25.45 11.95 25.45 11.95 26.03 11.95 26.5 12.42 26.5 13 26.5 13.58 26.03 14.05 25.45 14.05ZM 14.55 5.5C 14.55 5.5 14.55 8.18 14.55 8.18 14.55 8.76 14.08 9.23 13.5 9.23 12.92 9.23 12.45 8.76 12.45 8.18 12.45 8.18 12.45 5.5 12.45 5.5 9.13 5.97 6.52 8.61 6.1 11.95 6.1 11.95 8.68 11.95 8.68 11.95 9.26 11.95 9.73 12.42 9.73 13 9.73 13.58 9.26 14.05 8.68 14.05 8.68 14.05 6.12 14.05 6.12 14.05 6.62 17.29 9.2 19.83 12.45 20.29 12.45 20.29 12.45 17.82 12.45 17.82 12.45 17.24 12.92 16.77 13.5 16.77 14.08 16.77 14.55 17.24 14.55 17.82 14.55 17.82 14.55 20.29 14.55 20.29 17.8 19.83 20.38 17.29 20.88 14.05 20.88 14.05 18.32 14.05 18.32 14.05 17.74 14.05 17.27 13.58 17.27 13 17.27 12.42 17.74 11.95 18.32 11.95 18.32 11.95 20.9 11.95 20.9 11.95 20.48 8.61 17.87 5.97 14.55 5.5Z" fill="rgb(255,255,255)"/></svg>