<svg xmlns="http://www.w3.org/2000/svg" viewBox="0 0 18 24" width="18" height="24">
  <path fillRule="evenodd" d="M 16.94 10.7C 16.95 10.82 16.97 10.94 16.98 11.07 16.98 11.07 15.77 18.4 9.21 23.58 9.21 23.58 9.21 24 9.21 24 9.11 23.94 9.03 23.86 8.94 23.79 8.85 23.86 8.77 23.94 8.67 24 8.67 24 8.67 23.58 8.67 23.58 2.11 18.4 0.9 11.07 0.9 11.07 0.91 10.94 0.93 10.82 0.94 10.69 0.84 10.17 0.78 9.64 0.78 9.09 0.78 4.58 4.43 0.93 8.94 0.93 13.45 0.93 17.1 4.58 17.1 9.09 17.1 9.64 17.04 10.18 16.94 10.7ZM 9.02 5.95C 7.2 5.95 5.73 7.42 5.73 9.24 5.73 11.05 7.2 12.52 9.02 12.52 10.83 12.52 12.3 11.05 12.3 9.24 12.3 7.42 10.83 5.95 9.02 5.95Z" fill="rgb(255,255,255)" />
</svg>