<svg xmlns="http://www.w3.org/2000/svg" xmlns:xlink="http://www.w3.org/1999/xlink"><defs><style>
    .sprite-symbol-usage {display: none;}
    .sprite-symbol-usage:target {display: inline;}
  </style><symbol viewBox="0 0 32 32" id="dribbble-hover-icon"><path d="M16 0A16 16 0 0 0 0 16a16 16 0 0 0 16 16 16 16 0 0 0 16-16A16 16 0 0 0 16 0M5 11.5A12 12 0 0 1 11 5a46 46 0 0 1 2.5 4.25A46 46 0 0 1 5 11.5M15 4a12 12 0 0 1 6.5 1.25 46 46 0 0 1-4.5 2.5A50 50 0 0 0 15 4M4 16a50 50 0 0 0 11-3 46 46 0 0 1 1 2.5 26 26 0 0 0-10 7A12 12 0 0 1 4 16m14.5-4.5A50 50 0 0 0 25 8a12 12 0 0 1 3 5.75 26 26 0 0 0-8.25.75 50 50 0 0 0-1.25-3m-1.5 8a46 46 0 0 1 1 8.5 12 12 0 0 1-9.25-2.5 22 22 0 0 1 8.25-6m3.75-1.25a22 22 0 0 1 7.25-.5 12 12 0 0 1-6 8.75 50 50 0 0 0-1.25-8.25" fill="#e75735" /></symbol><symbol viewBox="0 0 32 32" id="dribbble-icon"><path d="M16 0A16 16 0 0 0 0 16a16 16 0 0 0 16 16 16 16 0 0 0 16-16A16 16 0 0 0 16 0M5 11.5A12 12 0 0 1 11 5a46 46 0 0 1 2.5 4.25A46 46 0 0 1 5 11.5M15 4a12 12 0 0 1 6.5 1.25 46 46 0 0 1-4.5 2.5A50 50 0 0 0 15 4M4 16a50 50 0 0 0 11-3 46 46 0 0 1 1 2.5 26 26 0 0 0-10 7A12 12 0 0 1 4 16m14.5-4.5A50 50 0 0 0 25 8a12 12 0 0 1 3 5.75 26 26 0 0 0-8.25.75 50 50 0 0 0-1.25-3m-1.5 8a46 46 0 0 1 1 8.5 12 12 0 0 1-9.25-2.5 22 22 0 0 1 8.25-6m3.75-1.25a22 22 0 0 1 7.25-.5 12 12 0 0 1-6 8.75 50 50 0 0 0-1.25-8.25" fill="#757575" /></symbol><symbol viewBox="0 0 32 32" id="dribbble-white-icon"><path d="M16 0A16 16 0 0 0 0 16a16 16 0 0 0 16 16 16 16 0 0 0 16-16A16 16 0 0 0 16 0M5 11.5A12 12 0 0 1 11 5a46 46 0 0 1 2.5 4.25A46 46 0 0 1 5 11.5M15 4a12 12 0 0 1 6.5 1.25 46 46 0 0 1-4.5 2.5A50 50 0 0 0 15 4M4 16a50 50 0 0 0 11-3 46 46 0 0 1 1 2.5 26 26 0 0 0-10 7A12 12 0 0 1 4 16m14.5-4.5A50 50 0 0 0 25 8a12 12 0 0 1 3 5.75 26 26 0 0 0-8.25.75 50 50 0 0 0-1.25-3m-1.5 8a46 46 0 0 1 1 8.5 12 12 0 0 1-9.25-2.5 22 22 0 0 1 8.25-6m3.75-1.25a22 22 0 0 1 7.25-.5 12 12 0 0 1-6 8.75 50 50 0 0 0-1.25-8.25" fill="#fff" /></symbol><symbol viewBox="0 0 32 32" id="dropdown-icon"><path d="M4.131 8.962a1.114 1.114 0 0 0-1.566 0 1.089 1.089 0 0 0 0 1.55L15.218 23.04a1.114 1.114 0 0 0 1.566 0l12.653-12.528c.432-.429.434-1.122 0-1.55s-1.136-.429-1.566-.002l-11.87 11.426L4.132 8.962z" fill="#fff" /></symbol><symbol viewBox="0 0 32 32" id="facebook-hover-icon"><path d="M17.996 32H12V16H8v-5.514l4-.002-.007-3.248c0-4.498 1.22-7.236 6.519-7.236h4.412v5.515h-2.757c-2.064 0-2.163.771-2.163 2.209l-.008 2.76h4.959l-.584 5.514-4.37.002-.004 16z" fill="#e75735" /></symbol><symbol viewBox="0 0 32 32" id="facebook-icon"><path d="M17.996 32H12V16H8v-5.514l4-.002-.007-3.248c0-4.498 1.22-7.236 6.519-7.236h4.412v5.515h-2.757c-2.064 0-2.163.771-2.163 2.209l-.008 2.76h4.959l-.584 5.514-4.37.002-.004 16z" fill="#757575" /></symbol><symbol viewBox="0 0 32 32" id="facebook-white-icon"><path d="M17.996 32H12V16H8v-5.514l4-.002-.007-3.248c0-4.498 1.22-7.236 6.519-7.236h4.412v5.515h-2.757c-2.064 0-2.163.771-2.163 2.209l-.008 2.76h4.959l-.584 5.514-4.37.002-.004 16z" fill="#fff" /></symbol><symbol viewBox="0 0 32 32" id="search-icon"><path d="M20.194 3.46c-4.613-4.613-12.121-4.613-16.734 0-4.612 4.614-4.612 12.121 0 16.735 4.108 4.107 10.506 4.547 15.116 1.34.097.459.319.897.676 1.254l6.718 6.718a2.498 2.498 0 0 0 3.535 0 2.496 2.496 0 0 0 0-3.535l-6.718-6.72a2.5 2.5 0 0 0-1.253-.674c3.209-4.611 2.769-11.008-1.34-15.118zm-2.121 14.614c-3.444 3.444-9.049 3.444-12.492 0-3.442-3.444-3.442-9.048 0-12.492 3.443-3.443 9.048-3.443 12.492 0 3.444 3.444 3.444 9.048 0 12.492z" fill="#fff" /></symbol><symbol viewBox="0 0 32 32" id="twitter-hover-icon"><path d="M32 6.076a13.14 13.14 0 0 1-3.771 1.034 6.592 6.592 0 0 0 2.887-3.632 13.151 13.151 0 0 1-4.169 1.593 6.557 6.557 0 0 0-4.792-2.073 6.565 6.565 0 0 0-6.565 6.565c0 .515.058 1.016.17 1.496a18.64 18.64 0 0 1-13.532-6.86A6.536 6.536 0 0 0 1.339 7.5a6.563 6.563 0 0 0 2.921 5.465 6.54 6.54 0 0 1-2.974-.821l-.001.083a6.568 6.568 0 0 0 5.266 6.437 6.578 6.578 0 0 1-2.965.112 6.571 6.571 0 0 0 6.133 4.559 13.172 13.172 0 0 1-8.154 2.81c-.53 0-1.052-.031-1.566-.092a18.579 18.579 0 0 0 10.064 2.95c12.076 0 18.679-10.004 18.679-18.68 0-.285-.006-.568-.019-.849a13.347 13.347 0 0 0 3.276-3.398z" fill="#e75735" /></symbol><symbol viewBox="0 0 32 32" id="twitter-icon"><path d="M32 6.076a13.14 13.14 0 0 1-3.771 1.034 6.592 6.592 0 0 0 2.887-3.632 13.151 13.151 0 0 1-4.169 1.593 6.557 6.557 0 0 0-4.792-2.073 6.565 6.565 0 0 0-6.565 6.565c0 .515.058 1.016.17 1.496a18.64 18.64 0 0 1-13.532-6.86A6.536 6.536 0 0 0 1.339 7.5a6.563 6.563 0 0 0 2.921 5.465 6.54 6.54 0 0 1-2.974-.821l-.001.083a6.568 6.568 0 0 0 5.266 6.437 6.578 6.578 0 0 1-2.965.112 6.571 6.571 0 0 0 6.133 4.559 13.172 13.172 0 0 1-8.154 2.81c-.53 0-1.052-.031-1.566-.092a18.579 18.579 0 0 0 10.064 2.95c12.076 0 18.679-10.004 18.679-18.68 0-.285-.006-.568-.019-.849a13.347 13.347 0 0 0 3.276-3.398z" fill="#757575" /></symbol><symbol viewBox="0 0 32 32" id="twitter-white-icon"><path d="M32 6.076a13.14 13.14 0 0 1-3.771 1.034 6.592 6.592 0 0 0 2.887-3.632 13.151 13.151 0 0 1-4.169 1.593 6.557 6.557 0 0 0-4.792-2.073 6.565 6.565 0 0 0-6.565 6.565c0 .515.058 1.016.17 1.496a18.64 18.64 0 0 1-13.532-6.86A6.536 6.536 0 0 0 1.339 7.5a6.563 6.563 0 0 0 2.921 5.465 6.54 6.54 0 0 1-2.974-.821l-.001.083a6.568 6.568 0 0 0 5.266 6.437 6.578 6.578 0 0 1-2.965.112 6.571 6.571 0 0 0 6.133 4.559 13.172 13.172 0 0 1-8.154 2.81c-.53 0-1.052-.031-1.566-.092a18.579 18.579 0 0 0 10.064 2.95c12.076 0 18.679-10.004 18.679-18.68 0-.285-.006-.568-.019-.849a13.347 13.347 0 0 0 3.276-3.398z" fill="#fff" /></symbol></defs><use id="dribbble-hover-icon-usage" xlink:href="#dribbble-hover-icon" class="sprite-symbol-usage" /><use id="dribbble-icon-usage" xlink:href="#dribbble-icon" class="sprite-symbol-usage" /><use id="dribbble-white-icon-usage" xlink:href="#dribbble-white-icon" class="sprite-symbol-usage" /><use id="dropdown-icon-usage" xlink:href="#dropdown-icon" class="sprite-symbol-usage" /><use id="facebook-hover-icon-usage" xlink:href="#facebook-hover-icon" class="sprite-symbol-usage" /><use id="facebook-icon-usage" xlink:href="#facebook-icon" class="sprite-symbol-usage" /><use id="facebook-white-icon-usage" xlink:href="#facebook-white-icon" class="sprite-symbol-usage" /><use id="search-icon-usage" xlink:href="#search-icon" class="sprite-symbol-usage" /><use id="twitter-hover-icon-usage" xlink:href="#twitter-hover-icon" class="sprite-symbol-usage" /><use id="twitter-icon-usage" xlink:href="#twitter-icon" class="sprite-symbol-usage" /><use id="twitter-white-icon-usage" xlink:href="#twitter-white-icon" class="sprite-symbol-usage" /></svg>