<svg xmlns="http://www.w3.org/2000/svg" xmlns:xlink="http://www.w3.org/1999/xlink"><defs><style>
    .sprite-symbol-usage {display: none;}
    .sprite-symbol-usage:target {display: inline;}
  </style><symbol viewBox="0 0 32 32" id="dropdown-icon"><path d="M4.131 8.962a1.114 1.114 0 0 0-1.566 0 1.089 1.089 0 0 0 0 1.55L15.218 23.04a1.114 1.114 0 0 0 1.566 0l12.653-12.528c.432-.429.434-1.122 0-1.55s-1.136-.429-1.566-.002l-11.87 11.426L4.132 8.962z" fill="#fff" /></symbol><symbol viewBox="0 0 32 32" id="search-icon"><path d="M20.194 3.46c-4.613-4.613-12.121-4.613-16.734 0-4.612 4.614-4.612 12.121 0 16.735 4.108 4.107 10.506 4.547 15.116 1.34.097.459.319.897.676 1.254l6.718 6.718a2.498 2.498 0 0 0 3.535 0 2.496 2.496 0 0 0 0-3.535l-6.718-6.72a2.5 2.5 0 0 0-1.253-.674c3.209-4.611 2.769-11.008-1.34-15.118zm-2.121 14.614c-3.444 3.444-9.049 3.444-12.492 0-3.442-3.444-3.442-9.048 0-12.492 3.443-3.443 9.048-3.443 12.492 0 3.444 3.444 3.444 9.048 0 12.492z" fill="#fff" /></symbol></defs><use id="dropdown-icon-usage" xlink:href="#dropdown-icon" class="sprite-symbol-usage" /><use id="search-icon-usage" xlink:href="#search-icon" class="sprite-symbol-usage" /></svg>